<svg xmlns="http://www.w3.org/2000/svg" viewBox="0 0 270.13 150.58"><defs><style>.cls-1{fill:#1d1d1b;}</style></defs><g id="Calque_2" data-name="Calque 2"><path class="cls-1" d="M18,150.58c.45-10.11.67-33.26.67-47.2V92.82c0-12.36-.22-19.33-.67-28.32l-18-2V54.61L30.57,41.13l3.37,2.25,2.69,26.07v33.93c0,13.94.23,37.09.68,47.2ZM53,142.71v7.87H1.35v-7.87l24.72-4.49h4.5Zm51-60v20.67c0,14.39.22,37.09.67,47.2H85.4c.45-10.11.68-32.81.68-47.2V84.5c0-20.9-5.4-27.64-18.88-27.64-11,0-19.78,4.5-32.36,15.51H30.12V62.25H41.58l-9.67,4c10.57-14.16,27.87-25.17,43.6-25.17C94.84,41.13,104.06,53,104.06,82.71ZM98,138.22l22.47,4.49v7.87H68.77v-7.87l24.72-4.49Zm73.49-58v23.15c0,14.39.23,37.09.68,47.2H152.83c.45-10.11.67-32.81.67-47.2V84.05c0-21.12-5.84-27.19-19.1-27.19-10.12,0-19.55,4-32.14,15.51H96.87V64.5H109L98.66,66.3C110.35,49.67,127,41.13,142.94,41.13,160.92,41.13,171.48,52.37,171.48,80.23Zm-6.07,58,22.48,4.49v7.87H136.2v-7.87l24.72-4.49Z"/><path class="cls-1" d="M131.91,9V0h62.92V9l-29.21,3.37h-4.5Zm33.71,129.23,29.21,3.37v9H131.91v-9l29.21-3.37ZM152.58,0h20.9c-.67,22.7-.67,46.07-.67,69.67V86.75c0,17.31,0,40.68.67,63.83h-20.9c0-4.74.5-75.47.5-75.47h0S153.06,72.28,152.58,0Zm10.34,96.19L241.58,0h13.49L162.92,110.8ZM204.5,52.82l54.39,97.76H237.76L192.81,66.75Zm8.31,88.77,27-3.37h3.38l27,3.37v9H212.81ZM215.29,9V0H267V9l-24.72,3.37-4.5,1.12Z"/></g></svg>